# Blender v2.80 (sub 75) OBJ File: ''
# www.blender.org
mtllib cube2.mtl
o Cube
v 1.000000 1.000000 -1.000000
v 1.000000 -1.000000 -1.000000
v 1.000000 1.000000 1.000000
v 1.000000 -1.000000 1.000000
v -1.000000 1.000000 -1.000000
v -1.000000 -1.000000 -1.000000
v -1.000000 1.000000 1.000000
v -1.000000 -1.000000 1.000000
vt 0.961946 0.351519
vt 0.961946 0.648481
vt 0.736844 0.648481
vt 0.736843 0.351519
vt 0.511741 0.351519
vt 0.511741 0.648481
vt 0.511741 0.945443
vt 0.286639 0.945443
vt 0.286638 0.648481
vt 0.286638 0.351519
vt 0.286638 0.054557
vt 0.511741 0.054557
vt 0.061536 0.648481
vt 0.061536 0.351519
vn 0.0000 1.0000 0.0000
vn 0.0000 0.0000 1.0000
vn -1.0000 0.0000 0.0000
vn 0.0000 -1.0000 0.0000
vn 1.0000 0.0000 0.0000
vn 0.0000 0.0000 -1.0000
usemtl Material
s off
f 1/1/1 5/2/1 7/3/1 3/4/1
f 4/5/2 3/4/2 7/3/2 8/6/2
f 8/6/3 7/7/3 5/8/3 6/9/3
f 6/9/4 2/10/4 4/5/4 8/6/4
f 2/10/5 1/11/5 3/12/5 4/5/5
f 6/9/6 5/13/6 1/14/6 2/10/6
