# Blender v2.81 (sub 16) OBJ File: ''
# www.blender.org
mtllib cube-plane.mtl
o Cube
v 1.000000 2.000000 -1.000000
v 1.000000 0.000000 -1.000000
v 1.000000 2.000000 1.000000
v 1.000000 0.000000 1.000000
v -1.000000 2.000000 -1.000000
v -1.000000 0.000000 -1.000000
v -1.000000 2.000000 1.000000
v -1.000000 0.000000 1.000000
vt 0.125000 0.500000
vt 0.375000 0.500000
vt 0.375000 0.750000
vt 0.125000 0.750000
vt 0.625000 0.500000
vt 0.875000 0.500000
vt 0.875000 0.750000
vt 0.625000 0.750000
vt 0.375000 0.000000
vt 0.625000 0.000000
vt 0.625000 0.250000
vt 0.375000 0.250000
vt 0.625000 1.000000
vt 0.375000 1.000000
vn 0.0000 -1.0000 0.0000
vn 0.0000 1.0000 0.0000
vn 1.0000 0.0000 0.0000
vn -1.0000 0.0000 0.0000
vn 0.0000 0.0000 1.0000
vn 0.0000 0.0000 -1.0000
usemtl Material
s off
f 6/1/1 2/2/1 4/3/1 8/4/1
usemtl blue
f 1/5/2 5/6/2 7/7/2 3/8/2
usemtl green
f 2/2/3 1/5/3 3/8/3 4/3/3
usemtl red
f 8/9/4 7/10/4 5/11/4 6/12/4
usemtl brown
f 4/3/5 3/8/5 7/13/5 8/14/5
usemtl white
f 6/12/6 5/11/6 1/5/6 2/2/6
o Plane
v -4.085736 0.000000 4.085736
v 4.085736 0.000000 4.085736
v -4.085736 0.000000 -4.085736
v 4.085736 0.000000 -4.085736
vt 0.000000 0.000000
vt 1.000000 0.000000
vt 1.000000 1.000000
vt 0.000000 1.000000
vn 0.0000 1.0000 0.0000
usemtl None
s off
f 9/15/7 10/16/7 12/17/7 11/18/7
